<svg width="122" height="122" viewBox="0 0 122 122" fill="#cccccc" xmlns="http://www.w3.org/2000/svg">
<path d="M2 87.09H0V81.09H2V87.09ZM12.3 116.55L11.27 118.26C12.22 118.83 13.22 119.34 14.24 119.76C15.12 120.12 16.06 120.44 17.02 120.71L17.55 118.78C16.66 118.53 15.8 118.24 15 117.91C14.07 117.53 13.16 117.07 12.3 116.55ZM2.48 100.92L0.5 101.21C0.82 103.44 1.32 105.41 2.02 107.23L3.89 106.52C3.25 104.84 2.79 103.01 2.49 100.93L2.48 100.92ZM2 91.08H0C0 92.93 0 95.03 0.11 97.13L2.11 97.02C2 94.97 2 92.9 2 91.07V91.08ZM5.58 109.91L3.88 110.97C4.99 112.75 6.34 114.37 7.9 115.77L9.24 114.28C7.82 113 6.59 111.54 5.58 109.91ZM21.07 121.52C22.85 121.77 24.78 121.9 27.17 121.96L27.21 119.96C24.9 119.91 23.04 119.78 21.34 119.54L21.07 121.52ZM41.19 121.98H47.19V119.98H41.19V121.98ZM35 2H41V0H35V2ZM25.05 2.11C27.06 2 29.06 2 31 2V0C29.04 0 27.01 0 24.95 0.11L25.05 2.11ZM2 71.09H0V77.09H2V71.09ZM2.46 21.25L0.48 20.97C0.23 22.76 0.09 24.69 0.03 27.07L2.03 27.12C2.08 24.83 2.22 22.96 2.46 21.25ZM4.08 15C4.48 14.04 4.95 13.11 5.49 12.22L3.78 11.18C3.19 12.15 2.67 13.18 2.23 14.24C1.88 15.09 1.57 16 1.31 16.93L3.24 17.47C3.48 16.61 3.76 15.78 4.08 15ZM12.15 5.53L11.1 3.83C9.31 4.93 7.69 6.28 6.28 7.83L7.76 9.17C9.04 7.75 10.52 6.53 12.14 5.53H12.15ZM21.16 2.47L20.88 0.49C18.65 0.81 16.68 1.3 14.86 1.98L15.57 3.85C17.25 3.22 19.08 2.76 21.17 2.46L21.16 2.47ZM45 2H51V0H45V2ZM61 0H55V2H61V0ZM2 51.09H0V57.09H2V51.09ZM2 61.09H0V67.09H2V61.09ZM2 41.09H0V47.09H2V41.09ZM2 31.09H0V37.09H2V31.09ZM31.19 122H37.19V120H31.19V122ZM51.19 122H57.19V120H51.19V122ZM120 80.91H122V74.91H120V80.91ZM120 90.91H122V84.91H120V90.91ZM119.54 100.75L121.52 101.03C121.77 99.24 121.91 97.31 121.97 94.93L119.97 94.89C119.92 97.18 119.78 99.05 119.54 100.75ZM117.92 107C117.52 107.96 117.05 108.89 116.51 109.78L118.22 110.82C118.81 109.85 119.34 108.82 119.77 107.77C120.12 106.92 120.43 106.02 120.69 105.08L118.76 104.54C118.52 105.4 118.23 106.23 117.92 107.01V107ZM120 70.91H122V64.91H120V70.91ZM119.52 21.08L121.5 20.79C121.18 18.56 120.68 16.59 119.98 14.77L118.11 15.48C118.75 17.16 119.21 18.99 119.52 21.07V21.08ZM114.1 6.23L112.76 7.72C114.18 9 115.41 10.46 116.42 12.09L118.12 11.03C117.01 9.25 115.66 7.63 114.1 6.23ZM120.01 30.92H122.01C122.01 29.07 122.01 26.97 121.9 24.87L119.9 24.98C120.01 27.02 120.01 29.1 120.01 30.92ZM120.01 60.92H122.01V54.92H120.01V60.92ZM120.01 40.92H122.01V34.92H120.01V40.92ZM120.01 50.92H122.01V44.92H120.01V50.92ZM81.01 122.01H87.01V120.01H81.01V122.01ZM109.86 116.48L110.91 118.18C112.7 117.08 114.32 115.73 115.73 114.18L114.25 112.84C112.97 114.26 111.5 115.48 109.87 116.48H109.86ZM71.01 122.01H77.01V120.01H71.01V122.01ZM84.81 2H90.81V0H84.81V2ZM64.81 2H70.81V0H64.81V2ZM61 122H67V120H61V122ZM74.81 2H80.81V0H74.81V2ZM107.76 2.23C106.88 1.87 105.94 1.55 104.98 1.28L104.45 3.21C105.34 3.46 106.2 3.75 107 4.08C107.93 4.47 108.84 4.92 109.7 5.44L110.73 3.73C109.78 3.16 108.78 2.65 107.76 2.23ZM100.84 119.53L101.12 121.51C103.35 121.19 105.32 120.7 107.14 120.01L106.43 118.14C104.75 118.77 102.92 119.23 100.83 119.53H100.84ZM91 120V122C92.96 122 94.99 122 97.05 121.89L96.95 119.89C94.94 120 92.94 120 91 120ZM94.83 0.03L94.79 2.03C97.09 2.08 98.96 2.21 100.66 2.45L100.93 0.47C99.15 0.23 97.21 0.09 94.83 0.03ZM83.82 48.87L73.12 38.17C72.37 37.42 71.35 37 70.29 37H40.99C38.78 37 36.99 38.79 36.99 41V81C36.99 83.21 38.78 85 40.99 85H80.99C83.2 85 84.99 83.21 84.99 81V51.7C84.99 50.64 84.57 49.62 83.82 48.87ZM73.28 65.7L61.69 77.28C61.3 77.67 60.67 77.67 60.28 77.28L48.69 65.7C48.3 65.31 48.3 64.68 48.69 64.29C48.88 64.1 49.13 64 49.4 64H53.99C54.54 64 54.99 63.55 54.99 63V49C54.99 48.45 55.44 48 55.99 48H65.99C66.54 48 66.99 48.45 66.99 49V63C66.99 63.55 67.44 64 67.99 64H72.58C73.13 64 73.58 64.45 73.58 65C73.58 65.27 73.47 65.52 73.29 65.71L73.28 65.7Z" />
</svg>
